<mxfile host="app.diagrams.net" modified="2021-05-04T14:51:35.424Z" agent="5.0 (Windows NT 10.0; Win64; x64) AppleWebKit/537.36 (KHTML, like Gecko) Chrome/90.0.4430.93 Safari/537.36" etag="GpW4eOzXXPsWbkyQWvsQ" version="14.6.9" type="github">
  <diagram id="C5RBs43oDa-KdzZeNtuy" name="Page-1">
    <mxGraphModel dx="782" dy="1606" grid="1" gridSize="10" guides="1" tooltips="1" connect="1" arrows="1" fold="1" page="1" pageScale="1" pageWidth="827" pageHeight="1169" math="0" shadow="0">
      <root>
        <mxCell id="WIyWlLk6GJQsqaUBKTNV-0" />
        <mxCell id="WIyWlLk6GJQsqaUBKTNV-1" parent="WIyWlLk6GJQsqaUBKTNV-0" />
        <mxCell id="HP9yCGofDi-nLFGb6gz2-20" style="edgeStyle=orthogonalEdgeStyle;rounded=0;orthogonalLoop=1;jettySize=auto;html=1;exitX=0;exitY=0.25;exitDx=0;exitDy=0;entryX=1;entryY=1;entryDx=0;entryDy=0;startArrow=none;" edge="1" parent="WIyWlLk6GJQsqaUBKTNV-1" source="HP9yCGofDi-nLFGb6gz2-21" target="HP9yCGofDi-nLFGb6gz2-4">
          <mxGeometry relative="1" as="geometry" />
        </mxCell>
        <mxCell id="HP9yCGofDi-nLFGb6gz2-62" style="edgeStyle=orthogonalEdgeStyle;rounded=0;orthogonalLoop=1;jettySize=auto;html=1;exitX=0;exitY=0.75;exitDx=0;exitDy=0;entryX=1;entryY=0.25;entryDx=0;entryDy=0;startArrow=none;" edge="1" parent="WIyWlLk6GJQsqaUBKTNV-1" source="HP9yCGofDi-nLFGb6gz2-63" target="HP9yCGofDi-nLFGb6gz2-4">
          <mxGeometry relative="1" as="geometry" />
        </mxCell>
        <mxCell id="HP9yCGofDi-nLFGb6gz2-65" style="edgeStyle=orthogonalEdgeStyle;rounded=0;orthogonalLoop=1;jettySize=auto;html=1;exitX=0;exitY=1;exitDx=0;exitDy=0;entryX=1;entryY=0.1;entryDx=0;entryDy=0;entryPerimeter=0;startArrow=none;" edge="1" parent="WIyWlLk6GJQsqaUBKTNV-1" source="HP9yCGofDi-nLFGb6gz2-66" target="HP9yCGofDi-nLFGb6gz2-51">
          <mxGeometry relative="1" as="geometry" />
        </mxCell>
        <mxCell id="WIyWlLk6GJQsqaUBKTNV-7" value="&lt;b&gt;&lt;font style=&quot;font-size: 12px&quot;&gt;GUI&lt;/font&gt;&lt;/b&gt;" style="rounded=1;whiteSpace=wrap;html=1;fontSize=12;glass=0;strokeWidth=1;shadow=0;align=left;fillColor=#f8cecc;strokeColor=#b85450;" parent="WIyWlLk6GJQsqaUBKTNV-1" vertex="1">
          <mxGeometry x="600" y="80" width="180" height="90" as="geometry" />
        </mxCell>
        <mxCell id="HP9yCGofDi-nLFGb6gz2-1" value="Plotter Thread" style="shape=process;whiteSpace=wrap;html=1;backgroundOutline=1;" vertex="1" parent="WIyWlLk6GJQsqaUBKTNV-1">
          <mxGeometry x="670" y="90" width="100" height="30" as="geometry" />
        </mxCell>
        <mxCell id="HP9yCGofDi-nLFGb6gz2-2" value="Event Thread" style="shape=process;whiteSpace=wrap;html=1;backgroundOutline=1;" vertex="1" parent="WIyWlLk6GJQsqaUBKTNV-1">
          <mxGeometry x="670" y="130" width="100" height="30" as="geometry" />
        </mxCell>
        <mxCell id="HP9yCGofDi-nLFGb6gz2-8" style="edgeStyle=orthogonalEdgeStyle;rounded=0;orthogonalLoop=1;jettySize=auto;html=1;exitX=1;exitY=0;exitDx=0;exitDy=0;entryX=0.25;entryY=1;entryDx=0;entryDy=0;startArrow=none;" edge="1" parent="WIyWlLk6GJQsqaUBKTNV-1" source="HP9yCGofDi-nLFGb6gz2-9" target="HP9yCGofDi-nLFGb6gz2-7">
          <mxGeometry relative="1" as="geometry" />
        </mxCell>
        <mxCell id="HP9yCGofDi-nLFGb6gz2-11" style="edgeStyle=orthogonalEdgeStyle;rounded=0;orthogonalLoop=1;jettySize=auto;html=1;exitX=0.75;exitY=0;exitDx=0;exitDy=0;entryX=0;entryY=0.75;entryDx=0;entryDy=0;startArrow=none;" edge="1" parent="WIyWlLk6GJQsqaUBKTNV-1" source="HP9yCGofDi-nLFGb6gz2-12" target="HP9yCGofDi-nLFGb6gz2-7">
          <mxGeometry relative="1" as="geometry" />
        </mxCell>
        <mxCell id="HP9yCGofDi-nLFGb6gz2-34" style="edgeStyle=orthogonalEdgeStyle;rounded=0;orthogonalLoop=1;jettySize=auto;html=1;exitX=0;exitY=1;exitDx=0;exitDy=0;entryX=0;entryY=0;entryDx=0;entryDy=0;startArrow=none;" edge="1" parent="WIyWlLk6GJQsqaUBKTNV-1" source="HP9yCGofDi-nLFGb6gz2-35" target="HP9yCGofDi-nLFGb6gz2-29">
          <mxGeometry relative="1" as="geometry" />
        </mxCell>
        <mxCell id="HP9yCGofDi-nLFGb6gz2-37" style="edgeStyle=orthogonalEdgeStyle;rounded=0;orthogonalLoop=1;jettySize=auto;html=1;exitX=0.25;exitY=1;exitDx=0;exitDy=0;entryX=0.25;entryY=0;entryDx=0;entryDy=0;startArrow=none;" edge="1" parent="WIyWlLk6GJQsqaUBKTNV-1" source="HP9yCGofDi-nLFGb6gz2-40" target="HP9yCGofDi-nLFGb6gz2-29">
          <mxGeometry relative="1" as="geometry" />
        </mxCell>
        <mxCell id="HP9yCGofDi-nLFGb6gz2-42" style="edgeStyle=orthogonalEdgeStyle;rounded=0;orthogonalLoop=1;jettySize=auto;html=1;exitX=0.75;exitY=1;exitDx=0;exitDy=0;entryX=0.928;entryY=0.011;entryDx=0;entryDy=0;entryPerimeter=0;startArrow=none;" edge="1" parent="WIyWlLk6GJQsqaUBKTNV-1" source="HP9yCGofDi-nLFGb6gz2-43" target="HP9yCGofDi-nLFGb6gz2-29">
          <mxGeometry relative="1" as="geometry" />
        </mxCell>
        <mxCell id="HP9yCGofDi-nLFGb6gz2-4" value="&lt;b&gt;&lt;font style=&quot;font-size: 12px&quot;&gt;Regulator&lt;/font&gt;&lt;/b&gt;" style="rounded=1;whiteSpace=wrap;html=1;fontSize=12;glass=0;strokeWidth=1;shadow=0;align=right;fillColor=#dae8fc;strokeColor=#6c8ebf;" vertex="1" parent="WIyWlLk6GJQsqaUBKTNV-1">
          <mxGeometry x="130" y="150" width="200" height="90" as="geometry" />
        </mxCell>
        <mxCell id="HP9yCGofDi-nLFGb6gz2-5" value="Regulator Thread" style="shape=process;whiteSpace=wrap;html=1;backgroundOutline=1;" vertex="1" parent="WIyWlLk6GJQsqaUBKTNV-1">
          <mxGeometry x="140" y="182.5" width="120" height="25" as="geometry" />
        </mxCell>
        <mxCell id="HP9yCGofDi-nLFGb6gz2-17" style="edgeStyle=orthogonalEdgeStyle;rounded=0;orthogonalLoop=1;jettySize=auto;html=1;exitX=0;exitY=0.25;exitDx=0;exitDy=0;entryX=0.25;entryY=0;entryDx=0;entryDy=0;startArrow=none;" edge="1" parent="WIyWlLk6GJQsqaUBKTNV-1" source="HP9yCGofDi-nLFGb6gz2-16" target="HP9yCGofDi-nLFGb6gz2-4">
          <mxGeometry relative="1" as="geometry">
            <Array as="points">
              <mxPoint x="203" y="45" />
              <mxPoint x="203" y="105" />
            </Array>
          </mxGeometry>
        </mxCell>
        <mxCell id="HP9yCGofDi-nLFGb6gz2-7" value="&lt;b&gt;&lt;font style=&quot;font-size: 12px&quot;&gt;Crazyflie&lt;/font&gt;&lt;/b&gt;" style="rounded=1;whiteSpace=wrap;html=1;fontSize=12;glass=0;strokeWidth=1;shadow=0;align=center;fillColor=#d5e8d4;strokeColor=#82b366;" vertex="1" parent="WIyWlLk6GJQsqaUBKTNV-1">
          <mxGeometry x="390" y="-60" width="190" height="70" as="geometry" />
        </mxCell>
        <mxCell id="HP9yCGofDi-nLFGb6gz2-9" value="Sending pitch, roll, and thrust setpoints" style="text;html=1;strokeColor=none;fillColor=none;align=center;verticalAlign=middle;whiteSpace=wrap;rounded=0;" vertex="1" parent="WIyWlLk6GJQsqaUBKTNV-1">
          <mxGeometry x="360" y="100" width="100" height="20" as="geometry" />
        </mxCell>
        <mxCell id="HP9yCGofDi-nLFGb6gz2-10" value="" style="edgeStyle=orthogonalEdgeStyle;rounded=0;orthogonalLoop=1;jettySize=auto;html=1;exitX=1;exitY=0;exitDx=0;exitDy=0;entryX=0.25;entryY=1;entryDx=0;entryDy=0;endArrow=none;" edge="1" parent="WIyWlLk6GJQsqaUBKTNV-1" source="HP9yCGofDi-nLFGb6gz2-4" target="HP9yCGofDi-nLFGb6gz2-9">
          <mxGeometry relative="1" as="geometry">
            <mxPoint x="420" y="150" as="sourcePoint" />
            <mxPoint x="407.5" y="70" as="targetPoint" />
            <Array as="points">
              <mxPoint x="330" y="130" />
              <mxPoint x="385" y="130" />
            </Array>
          </mxGeometry>
        </mxCell>
        <mxCell id="HP9yCGofDi-nLFGb6gz2-12" value="Setting up connection and settings" style="text;html=1;strokeColor=none;fillColor=none;align=center;verticalAlign=middle;whiteSpace=wrap;rounded=0;" vertex="1" parent="WIyWlLk6GJQsqaUBKTNV-1">
          <mxGeometry x="280" y="80" width="80" height="20" as="geometry" />
        </mxCell>
        <mxCell id="HP9yCGofDi-nLFGb6gz2-13" value="" style="edgeStyle=orthogonalEdgeStyle;rounded=0;orthogonalLoop=1;jettySize=auto;html=1;exitX=0.75;exitY=0;exitDx=0;exitDy=0;entryX=0;entryY=0.75;entryDx=0;entryDy=0;endArrow=none;" edge="1" parent="WIyWlLk6GJQsqaUBKTNV-1" source="HP9yCGofDi-nLFGb6gz2-4" target="HP9yCGofDi-nLFGb6gz2-12">
          <mxGeometry relative="1" as="geometry">
            <mxPoint x="347.5" y="150" as="sourcePoint" />
            <mxPoint x="360" y="52.5" as="targetPoint" />
          </mxGeometry>
        </mxCell>
        <mxCell id="HP9yCGofDi-nLFGb6gz2-16" value="Sending position" style="text;html=1;strokeColor=none;fillColor=none;align=center;verticalAlign=middle;whiteSpace=wrap;rounded=0;" vertex="1" parent="WIyWlLk6GJQsqaUBKTNV-1">
          <mxGeometry x="220" y="60" width="40" height="20" as="geometry" />
        </mxCell>
        <mxCell id="HP9yCGofDi-nLFGb6gz2-18" value="" style="edgeStyle=orthogonalEdgeStyle;rounded=0;orthogonalLoop=1;jettySize=auto;html=1;exitX=0;exitY=0.25;exitDx=0;exitDy=0;entryX=0.25;entryY=0;entryDx=0;entryDy=0;endArrow=none;" edge="1" parent="WIyWlLk6GJQsqaUBKTNV-1" source="HP9yCGofDi-nLFGb6gz2-7" target="HP9yCGofDi-nLFGb6gz2-16">
          <mxGeometry relative="1" as="geometry">
            <mxPoint x="360" y="17.5" as="sourcePoint" />
            <mxPoint x="202.5" y="150" as="targetPoint" />
          </mxGeometry>
        </mxCell>
        <mxCell id="HP9yCGofDi-nLFGb6gz2-21" value="Sending controller parameters" style="text;html=1;strokeColor=none;fillColor=none;align=center;verticalAlign=middle;whiteSpace=wrap;rounded=0;" vertex="1" parent="WIyWlLk6GJQsqaUBKTNV-1">
          <mxGeometry x="530" y="100" width="40" height="20" as="geometry" />
        </mxCell>
        <mxCell id="HP9yCGofDi-nLFGb6gz2-22" value="" style="edgeStyle=orthogonalEdgeStyle;rounded=0;orthogonalLoop=1;jettySize=auto;html=1;exitX=0;exitY=0.25;exitDx=0;exitDy=0;entryX=1;entryY=0.25;entryDx=0;entryDy=0;endArrow=none;" edge="1" parent="WIyWlLk6GJQsqaUBKTNV-1" source="WIyWlLk6GJQsqaUBKTNV-7" target="HP9yCGofDi-nLFGb6gz2-21">
          <mxGeometry relative="1" as="geometry">
            <mxPoint x="600" y="102.5" as="sourcePoint" />
            <mxPoint x="420" y="172.5" as="targetPoint" />
          </mxGeometry>
        </mxCell>
        <mxCell id="HP9yCGofDi-nLFGb6gz2-26" style="edgeStyle=orthogonalEdgeStyle;rounded=0;orthogonalLoop=1;jettySize=auto;html=1;exitX=0;exitY=0;exitDx=0;exitDy=0;entryX=1;entryY=0.5;entryDx=0;entryDy=0;startArrow=none;" edge="1" parent="WIyWlLk6GJQsqaUBKTNV-1" source="HP9yCGofDi-nLFGb6gz2-27" target="HP9yCGofDi-nLFGb6gz2-4">
          <mxGeometry relative="1" as="geometry" />
        </mxCell>
        <mxCell id="HP9yCGofDi-nLFGb6gz2-45" style="edgeStyle=orthogonalEdgeStyle;rounded=0;orthogonalLoop=1;jettySize=auto;html=1;exitX=0.5;exitY=0;exitDx=0;exitDy=0;entryX=0.5;entryY=1;entryDx=0;entryDy=0;startArrow=none;" edge="1" parent="WIyWlLk6GJQsqaUBKTNV-1" source="HP9yCGofDi-nLFGb6gz2-46" target="WIyWlLk6GJQsqaUBKTNV-7">
          <mxGeometry relative="1" as="geometry" />
        </mxCell>
        <mxCell id="HP9yCGofDi-nLFGb6gz2-48" style="edgeStyle=orthogonalEdgeStyle;rounded=0;orthogonalLoop=1;jettySize=auto;html=1;exitX=1;exitY=0;exitDx=0;exitDy=0;entryX=0.878;entryY=1.015;entryDx=0;entryDy=0;entryPerimeter=0;startArrow=none;" edge="1" parent="WIyWlLk6GJQsqaUBKTNV-1" source="HP9yCGofDi-nLFGb6gz2-49" target="WIyWlLk6GJQsqaUBKTNV-7">
          <mxGeometry relative="1" as="geometry" />
        </mxCell>
        <mxCell id="HP9yCGofDi-nLFGb6gz2-53" style="edgeStyle=orthogonalEdgeStyle;rounded=0;orthogonalLoop=1;jettySize=auto;html=1;exitX=0;exitY=1;exitDx=0;exitDy=0;entryX=1;entryY=0.75;entryDx=0;entryDy=0;startArrow=none;" edge="1" parent="WIyWlLk6GJQsqaUBKTNV-1" source="HP9yCGofDi-nLFGb6gz2-54" target="HP9yCGofDi-nLFGb6gz2-51">
          <mxGeometry relative="1" as="geometry" />
        </mxCell>
        <mxCell id="HP9yCGofDi-nLFGb6gz2-24" value="&lt;b&gt;Main&lt;/b&gt;" style="rounded=1;whiteSpace=wrap;html=1;align=left;" vertex="1" parent="WIyWlLk6GJQsqaUBKTNV-1">
          <mxGeometry x="630" y="237.5" width="120" height="60" as="geometry" />
        </mxCell>
        <mxCell id="HP9yCGofDi-nLFGb6gz2-25" value="Main Thread" style="shape=process;whiteSpace=wrap;html=1;backgroundOutline=1;" vertex="1" parent="WIyWlLk6GJQsqaUBKTNV-1">
          <mxGeometry x="660" y="252.5" width="90" height="30" as="geometry" />
        </mxCell>
        <mxCell id="HP9yCGofDi-nLFGb6gz2-27" value="Starting a setup process which induces the reglator thread" style="text;html=1;strokeColor=none;fillColor=none;align=center;verticalAlign=middle;whiteSpace=wrap;rounded=0;" vertex="1" parent="WIyWlLk6GJQsqaUBKTNV-1">
          <mxGeometry x="480" y="220" width="110" height="20" as="geometry" />
        </mxCell>
        <mxCell id="HP9yCGofDi-nLFGb6gz2-28" value="" style="edgeStyle=orthogonalEdgeStyle;rounded=0;orthogonalLoop=1;jettySize=auto;html=1;exitX=0;exitY=0;exitDx=0;exitDy=0;entryX=1;entryY=0.5;entryDx=0;entryDy=0;endArrow=none;" edge="1" parent="WIyWlLk6GJQsqaUBKTNV-1" source="HP9yCGofDi-nLFGb6gz2-24" target="HP9yCGofDi-nLFGb6gz2-27">
          <mxGeometry relative="1" as="geometry">
            <mxPoint x="510" y="220" as="sourcePoint" />
            <mxPoint x="420" y="195" as="targetPoint" />
            <Array as="points">
              <mxPoint x="630" y="230" />
            </Array>
          </mxGeometry>
        </mxCell>
        <mxCell id="HP9yCGofDi-nLFGb6gz2-29" value="PDController" style="rounded=1;whiteSpace=wrap;html=1;fillColor=#ffe6cc;strokeColor=#d79b00;" vertex="1" parent="WIyWlLk6GJQsqaUBKTNV-1">
          <mxGeometry x="160" y="310" width="120" height="60" as="geometry" />
        </mxCell>
        <mxCell id="HP9yCGofDi-nLFGb6gz2-35" value="Calculate output" style="text;html=1;strokeColor=none;fillColor=none;align=center;verticalAlign=middle;whiteSpace=wrap;rounded=0;" vertex="1" parent="WIyWlLk6GJQsqaUBKTNV-1">
          <mxGeometry x="130" y="260" width="40" height="20" as="geometry" />
        </mxCell>
        <mxCell id="HP9yCGofDi-nLFGb6gz2-36" value="" style="edgeStyle=orthogonalEdgeStyle;rounded=0;orthogonalLoop=1;jettySize=auto;html=1;exitX=0;exitY=1;exitDx=0;exitDy=0;entryX=0;entryY=0;entryDx=0;entryDy=0;endArrow=none;" edge="1" parent="WIyWlLk6GJQsqaUBKTNV-1" source="HP9yCGofDi-nLFGb6gz2-4" target="HP9yCGofDi-nLFGb6gz2-35">
          <mxGeometry relative="1" as="geometry">
            <mxPoint x="130" y="240" as="sourcePoint" />
            <mxPoint x="160" y="310" as="targetPoint" />
          </mxGeometry>
        </mxCell>
        <mxCell id="HP9yCGofDi-nLFGb6gz2-40" value="Update state" style="text;html=1;strokeColor=none;fillColor=none;align=center;verticalAlign=middle;whiteSpace=wrap;rounded=0;" vertex="1" parent="WIyWlLk6GJQsqaUBKTNV-1">
          <mxGeometry x="180" y="260" width="40" height="20" as="geometry" />
        </mxCell>
        <mxCell id="HP9yCGofDi-nLFGb6gz2-41" value="" style="edgeStyle=orthogonalEdgeStyle;rounded=0;orthogonalLoop=1;jettySize=auto;html=1;exitX=0.25;exitY=1;exitDx=0;exitDy=0;entryX=0.25;entryY=0;entryDx=0;entryDy=0;endArrow=none;" edge="1" parent="WIyWlLk6GJQsqaUBKTNV-1" source="HP9yCGofDi-nLFGb6gz2-4" target="HP9yCGofDi-nLFGb6gz2-40">
          <mxGeometry relative="1" as="geometry">
            <mxPoint x="180" y="240" as="sourcePoint" />
            <mxPoint x="190" y="310" as="targetPoint" />
          </mxGeometry>
        </mxCell>
        <mxCell id="HP9yCGofDi-nLFGb6gz2-43" value="Setting parameters" style="text;html=1;strokeColor=none;fillColor=none;align=center;verticalAlign=middle;whiteSpace=wrap;rounded=0;" vertex="1" parent="WIyWlLk6GJQsqaUBKTNV-1">
          <mxGeometry x="270" y="260" width="40" height="20" as="geometry" />
        </mxCell>
        <mxCell id="HP9yCGofDi-nLFGb6gz2-44" value="" style="edgeStyle=orthogonalEdgeStyle;rounded=0;orthogonalLoop=1;jettySize=auto;html=1;exitX=0.75;exitY=1;exitDx=0;exitDy=0;entryX=0.928;entryY=0.011;entryDx=0;entryDy=0;entryPerimeter=0;endArrow=none;" edge="1" parent="WIyWlLk6GJQsqaUBKTNV-1" source="HP9yCGofDi-nLFGb6gz2-4" target="HP9yCGofDi-nLFGb6gz2-43">
          <mxGeometry relative="1" as="geometry">
            <mxPoint x="280" y="240" as="sourcePoint" />
            <mxPoint x="271.3599999999999" y="310.65999999999997" as="targetPoint" />
          </mxGeometry>
        </mxCell>
        <mxCell id="HP9yCGofDi-nLFGb6gz2-46" value="Starting plotter thread" style="text;html=1;strokeColor=none;fillColor=none;align=center;verticalAlign=middle;whiteSpace=wrap;rounded=0;" vertex="1" parent="WIyWlLk6GJQsqaUBKTNV-1">
          <mxGeometry x="660" y="200" width="40" height="20" as="geometry" />
        </mxCell>
        <mxCell id="HP9yCGofDi-nLFGb6gz2-47" value="" style="edgeStyle=orthogonalEdgeStyle;rounded=0;orthogonalLoop=1;jettySize=auto;html=1;exitX=0.5;exitY=0;exitDx=0;exitDy=0;entryX=0.5;entryY=1;entryDx=0;entryDy=0;endArrow=none;" edge="1" parent="WIyWlLk6GJQsqaUBKTNV-1" source="HP9yCGofDi-nLFGb6gz2-24">
          <mxGeometry relative="1" as="geometry">
            <mxPoint x="690" y="237.5" as="sourcePoint" />
            <mxPoint x="685" y="230" as="targetPoint" />
          </mxGeometry>
        </mxCell>
        <mxCell id="HP9yCGofDi-nLFGb6gz2-49" value="Starting event thread" style="text;html=1;strokeColor=none;fillColor=none;align=center;verticalAlign=middle;whiteSpace=wrap;rounded=0;" vertex="1" parent="WIyWlLk6GJQsqaUBKTNV-1">
          <mxGeometry x="730" y="200" width="40" height="20" as="geometry" />
        </mxCell>
        <mxCell id="HP9yCGofDi-nLFGb6gz2-50" value="" style="edgeStyle=orthogonalEdgeStyle;rounded=0;orthogonalLoop=1;jettySize=auto;html=1;exitX=1;exitY=0;exitDx=0;exitDy=0;entryX=0.878;entryY=1.015;entryDx=0;entryDy=0;entryPerimeter=0;endArrow=none;" edge="1" parent="WIyWlLk6GJQsqaUBKTNV-1" source="HP9yCGofDi-nLFGb6gz2-24" target="HP9yCGofDi-nLFGb6gz2-49">
          <mxGeometry relative="1" as="geometry">
            <mxPoint x="750" y="237.5" as="sourcePoint" />
            <mxPoint x="758.04" y="171.35000000000002" as="targetPoint" />
          </mxGeometry>
        </mxCell>
        <mxCell id="HP9yCGofDi-nLFGb6gz2-56" style="edgeStyle=orthogonalEdgeStyle;rounded=0;orthogonalLoop=1;jettySize=auto;html=1;exitX=0;exitY=0;exitDx=0;exitDy=0;entryX=1;entryY=0.75;entryDx=0;entryDy=0;startArrow=none;" edge="1" parent="WIyWlLk6GJQsqaUBKTNV-1" source="HP9yCGofDi-nLFGb6gz2-57" target="HP9yCGofDi-nLFGb6gz2-4">
          <mxGeometry relative="1" as="geometry" />
        </mxCell>
        <mxCell id="HP9yCGofDi-nLFGb6gz2-51" value="&lt;b&gt;Reference &lt;br&gt;Generator&lt;/b&gt;" style="rounded=1;whiteSpace=wrap;html=1;align=left;fillColor=#fff2cc;strokeColor=#d6b656;" vertex="1" parent="WIyWlLk6GJQsqaUBKTNV-1">
          <mxGeometry x="400" y="330" width="170" height="80" as="geometry" />
        </mxCell>
        <mxCell id="HP9yCGofDi-nLFGb6gz2-52" value="Reference Generator Thread" style="shape=process;whiteSpace=wrap;html=1;backgroundOutline=1;" vertex="1" parent="WIyWlLk6GJQsqaUBKTNV-1">
          <mxGeometry x="475" y="342.5" width="70" height="55" as="geometry" />
        </mxCell>
        <mxCell id="HP9yCGofDi-nLFGb6gz2-54" value="Starting Thread" style="text;html=1;strokeColor=none;fillColor=none;align=center;verticalAlign=middle;whiteSpace=wrap;rounded=0;" vertex="1" parent="WIyWlLk6GJQsqaUBKTNV-1">
          <mxGeometry x="610" y="350" width="40" height="20" as="geometry" />
        </mxCell>
        <mxCell id="HP9yCGofDi-nLFGb6gz2-55" value="" style="edgeStyle=orthogonalEdgeStyle;rounded=0;orthogonalLoop=1;jettySize=auto;html=1;exitX=0;exitY=1;exitDx=0;exitDy=0;entryX=1;entryY=0.75;entryDx=0;entryDy=0;endArrow=none;" edge="1" parent="WIyWlLk6GJQsqaUBKTNV-1" source="HP9yCGofDi-nLFGb6gz2-24" target="HP9yCGofDi-nLFGb6gz2-54">
          <mxGeometry relative="1" as="geometry">
            <mxPoint x="630" y="297.5" as="sourcePoint" />
            <mxPoint x="570" y="390" as="targetPoint" />
          </mxGeometry>
        </mxCell>
        <mxCell id="HP9yCGofDi-nLFGb6gz2-57" value="Sending reference positions" style="text;html=1;strokeColor=none;fillColor=none;align=center;verticalAlign=middle;whiteSpace=wrap;rounded=0;" vertex="1" parent="WIyWlLk6GJQsqaUBKTNV-1">
          <mxGeometry x="380" y="288" width="40" height="20" as="geometry" />
        </mxCell>
        <mxCell id="HP9yCGofDi-nLFGb6gz2-58" value="" style="edgeStyle=orthogonalEdgeStyle;rounded=0;orthogonalLoop=1;jettySize=auto;html=1;exitX=0;exitY=0;exitDx=0;exitDy=0;entryX=1;entryY=0.75;entryDx=0;entryDy=0;endArrow=none;" edge="1" parent="WIyWlLk6GJQsqaUBKTNV-1" source="HP9yCGofDi-nLFGb6gz2-51" target="HP9yCGofDi-nLFGb6gz2-57">
          <mxGeometry relative="1" as="geometry">
            <mxPoint x="400" y="330" as="sourcePoint" />
            <mxPoint x="330" y="217.5" as="targetPoint" />
          </mxGeometry>
        </mxCell>
        <mxCell id="HP9yCGofDi-nLFGb6gz2-63" value="Getting plot-data" style="text;html=1;strokeColor=none;fillColor=none;align=center;verticalAlign=middle;whiteSpace=wrap;rounded=0;" vertex="1" parent="WIyWlLk6GJQsqaUBKTNV-1">
          <mxGeometry x="460" y="140" width="40" height="20" as="geometry" />
        </mxCell>
        <mxCell id="HP9yCGofDi-nLFGb6gz2-64" value="" style="edgeStyle=orthogonalEdgeStyle;rounded=0;orthogonalLoop=1;jettySize=auto;html=1;exitX=0;exitY=0.75;exitDx=0;exitDy=0;entryX=1;entryY=0.25;entryDx=0;entryDy=0;endArrow=none;" edge="1" parent="WIyWlLk6GJQsqaUBKTNV-1" source="WIyWlLk6GJQsqaUBKTNV-7" target="HP9yCGofDi-nLFGb6gz2-63">
          <mxGeometry relative="1" as="geometry">
            <mxPoint x="600" y="147.5" as="sourcePoint" />
            <mxPoint x="330" y="172.5" as="targetPoint" />
          </mxGeometry>
        </mxCell>
        <mxCell id="HP9yCGofDi-nLFGb6gz2-66" value="Setting reference generator" style="text;html=1;strokeColor=none;fillColor=none;align=center;verticalAlign=middle;whiteSpace=wrap;rounded=0;" vertex="1" parent="WIyWlLk6GJQsqaUBKTNV-1">
          <mxGeometry x="520" y="277.5" width="40" height="20" as="geometry" />
        </mxCell>
        <mxCell id="HP9yCGofDi-nLFGb6gz2-67" value="" style="edgeStyle=orthogonalEdgeStyle;rounded=0;orthogonalLoop=1;jettySize=auto;html=1;exitX=0;exitY=1;exitDx=0;exitDy=0;entryX=1;entryY=0.1;entryDx=0;entryDy=0;entryPerimeter=0;endArrow=none;" edge="1" parent="WIyWlLk6GJQsqaUBKTNV-1" source="WIyWlLk6GJQsqaUBKTNV-7" target="HP9yCGofDi-nLFGb6gz2-66">
          <mxGeometry relative="1" as="geometry">
            <mxPoint x="600" y="170" as="sourcePoint" />
            <mxPoint x="570" y="338" as="targetPoint" />
          </mxGeometry>
        </mxCell>
        <mxCell id="HP9yCGofDi-nLFGb6gz2-68" value="" style="endArrow=none;dashed=1;html=1;" edge="1" parent="WIyWlLk6GJQsqaUBKTNV-1">
          <mxGeometry width="50" height="50" relative="1" as="geometry">
            <mxPoint x="120" y="40" as="sourcePoint" />
            <mxPoint x="800" y="40" as="targetPoint" />
          </mxGeometry>
        </mxCell>
        <mxCell id="HP9yCGofDi-nLFGb6gz2-70" value="" style="endArrow=none;dashed=1;html=1;" edge="1" parent="WIyWlLk6GJQsqaUBKTNV-1">
          <mxGeometry width="50" height="50" relative="1" as="geometry">
            <mxPoint x="800" y="40" as="sourcePoint" />
            <mxPoint x="800" y="420" as="targetPoint" />
          </mxGeometry>
        </mxCell>
        <mxCell id="HP9yCGofDi-nLFGb6gz2-71" value="" style="endArrow=none;dashed=1;html=1;" edge="1" parent="WIyWlLk6GJQsqaUBKTNV-1">
          <mxGeometry width="50" height="50" relative="1" as="geometry">
            <mxPoint x="120" y="420" as="sourcePoint" />
            <mxPoint x="800" y="420" as="targetPoint" />
          </mxGeometry>
        </mxCell>
        <mxCell id="HP9yCGofDi-nLFGb6gz2-72" value="" style="endArrow=none;dashed=1;html=1;" edge="1" parent="WIyWlLk6GJQsqaUBKTNV-1">
          <mxGeometry width="50" height="50" relative="1" as="geometry">
            <mxPoint x="120" y="40" as="sourcePoint" />
            <mxPoint x="120" y="420" as="targetPoint" />
          </mxGeometry>
        </mxCell>
        <mxCell id="HP9yCGofDi-nLFGb6gz2-73" value="&lt;font style=&quot;font-size: 20px&quot;&gt;Code&lt;/font&gt;" style="text;html=1;strokeColor=none;fillColor=none;align=center;verticalAlign=middle;whiteSpace=wrap;rounded=0;" vertex="1" parent="WIyWlLk6GJQsqaUBKTNV-1">
          <mxGeometry x="670" y="20" width="40" height="20" as="geometry" />
        </mxCell>
      </root>
    </mxGraphModel>
  </diagram>
</mxfile>
